<?xml version="1.0" encoding="UTF-8"?>
<!-- Uploaded to: SVG Repo, www.svgrepo.com, Generator: SVG Repo Mixer Tools -->
<svg width="800px" height="800px" viewBox="-7 0 38 38" version="1.1" xmlns="http://www.w3.org/2000/svg" xmlns:xlink="http://www.w3.org/1999/xlink">
    
    <title>mobile-casino</title>
    <desc>Created with Sketch.</desc>
    <defs>
        <linearGradient x1="50%" y1="0%" x2="50%" y2="100%" id="linearGradient-1">
            <stop stop-color="#3A3A3F" offset="0%">
</stop>
            <stop stop-color="#1B1B1E" offset="100%">
</stop>
        </linearGradient>
        <linearGradient x1="50%" y1="0%" x2="50%" y2="98.8466005%" id="linearGradient-2">
            <stop stop-color="#232327" offset="0%">
</stop>
            <stop stop-color="#101011" offset="100%">
</stop>
        </linearGradient>
        <linearGradient x1="50%" y1="0%" x2="50%" y2="100%" id="linearGradient-3">
            <stop stop-color="#FAA27A" offset="0%">
</stop>
            <stop stop-color="#F3444D" offset="100%">
</stop>
        </linearGradient>
        <linearGradient x1="50%" y1="0%" x2="50%" y2="98.7559261%" id="linearGradient-4">
            <stop stop-color="#A03B2F" offset="0%">
</stop>
            <stop stop-color="#A32727" offset="100%">
</stop>
        </linearGradient>
    </defs>
    <g id="icons" stroke="none" stroke-width="1" fill="none" fill-rule="evenodd">
        <g id="ui-gambling-website-lined-icnos-casinoshunter" transform="translate(-1908.000000, -2033.000000)" fill-rule="nonzero">
            <g id="4" transform="translate(50.000000, 1871.000000)">
                <g id="mobile-casino" transform="translate(1858.000000, 162.000000)">
                    <path d="M20.3076923,0 C22.3468975,0 24,1.70131795 24,3.8 L24,34.2 C24,36.298682 22.3468975,38 20.3076923,38 L3.69230769,38 C1.65310246,38 0,36.298682 0,34.2 L0,3.8 C0,1.70131795 1.65310246,0 3.69230769,0 L20.3076923,0 Z" id="Combined-Shape" fill="url(#linearGradient-1)">
</path>
                    <rect id="Rectangle" fill="url(#linearGradient-2)" x="7" y="1" width="10" height="2" rx="1">
</rect>
                    <g id="chip" transform="translate(4.000000, 11.000000)">
                        <path d="M8,0 C12.418278,0 16,3.581722 16,8 C16,12.418278 12.418278,16 8,16 C3.581722,16 0,12.418278 0,8 C0,3.581722 3.581722,0 8,0 Z" fill="url(#linearGradient-3)">
</path>
                        <path d="M8,0 C12.418278,0 16,3.581722 16,8 C16,12.418278 12.418278,16 8,16 C3.581722,16 0,12.418278 0,8 C0,3.581722 3.581722,0 8,0 Z M5.07271818,11.3443449 L5.05064935,11.3714606 L5.05064935,11.3714606 L3.1871096,13.2349346 C4.35171845,14.3062083 5.87474837,14.9938535 7.55579155,15.0974626 L7.55487518,12.4224323 C6.60870343,12.3283442 5.74985452,11.9375185 5.07271818,11.3443449 Z M8.44512482,12.4224323 L8.44420845,15.0974626 C10.189074,14.9899199 11.7637003,14.2531522 12.9439759,13.111271 C12.915896,13.0947582 12.8902226,13.0743175 12.8665544,13.0506493 L11.048468,11.234198 C10.3540091,11.8890167 9.44868548,12.3226374 8.44512482,12.4224323 Z M3.57736827,8.4431146 L3.55555556,8.44444444 L3.55555556,8.44444444 L0.902537444,8.44420845 C0.999765969,10.0217287 1.6113127,11.4600981 2.57156145,12.5937005 L4.42210999,10.7429213 L4.4712979,10.7024737 C3.98141133,10.0637758 3.66102219,9.28824346 3.57736827,8.4431146 Z M11.6332989,10.5603701 L13.4950938,12.42211 L13.5326069,12.4678381 C14.4328238,11.3544763 15.0037975,9.96391123 15.0974626,8.44420845 L12.4444444,8.44444444 L12.4226317,8.4431146 C12.3450874,9.22652024 12.0641246,9.95012395 11.6332989,10.5603701 Z M8,4.44444444 C6.03632089,4.44444444 4.44444444,6.03632089 4.44444444,8 C4.44444444,9.96367911 6.03632089,11.5555556 8,11.5555556 C9.96367911,11.5555556 11.5555556,9.96367911 11.5555556,8 C11.5555556,6.03632089 9.96367911,4.44444444 8,4.44444444 Z M0.902537444,7.55579155 L3.55555556,7.55555556 L3.57736827,7.5568854 C3.66102219,6.71175654 3.98141133,5.93622424 4.4712979,5.29752627 L4.42210999,5.25707872 L2.57156145,3.4062995 C1.6113127,4.53990193 0.999765969,5.97827135 0.902537444,7.55579155 Z M13.3480328,3.31301892 L11.4549799,5.2040191 C11.9864054,5.85988513 12.3348515,6.67006938 12.4226317,7.5568854 L12.4444444,7.55555556 L12.4444444,7.55555556 L15.0974626,7.55579155 C14.9975471,5.9346761 14.3544939,4.46050866 13.3480328,3.31301892 Z M3.1871096,2.76506541 L5.05064935,4.62853936 C5.05901772,4.63690774 5.06698263,4.6455268 5.07454405,4.65437238 C5.75033403,4.06206142 6.60991991,3.67110235 7.5568854,3.57736827 C7.55574134,3.57051249 7.55555556,3.56305572 7.55555556,3.55555556 L7.55579155,0.902537444 C5.87474837,1.00614648 4.35171845,1.69379174 3.1871096,2.76506541 Z M8.44420845,0.902537444 L8.44444444,3.55555556 L8.4431146,3.57736827 C9.34542367,3.6666821 10.1684,4.02584917 10.8302139,4.57303987 L12.7210067,2.6820025 C11.5687011,1.65830741 10.0813925,1.00344328 8.44420845,0.902537444 Z" fill="url(#linearGradient-4)">
</path>
                    </g>
                </g>
            </g>
        </g>
    </g>
</svg>